<?xml version="1.0" standalone="no"?>
<!DOCTYPE svg PUBLIC "-//W3C//DTD SVG 20010904//EN"
 "http://www.w3.org/TR/2001/REC-SVG-20010904/DTD/svg10.dtd">
<svg version="1.0" xmlns="http://www.w3.org/2000/svg"
 width="225.000000pt" height="225.000000pt" viewBox="0 0 225.000000 225.000000"
 preserveAspectRatio="xMidYMid meet">

<g transform="translate(0.000000,225.000000) scale(0.100000,-0.100000)"
fill="#000000" stroke="none">
<path d="M782 2145 c-53 -16 -78 -38 -102 -87 -17 -35 -17 -38 -2 -38 38 0 99
24 125 48 26 24 57 72 57 87 0 8 -32 5 -78 -10z"/>
<path d="M1400 2153 c0 -6 14 -29 31 -52 33 -46 103 -84 144 -79 l23 3 -21 44
c-15 30 -34 51 -57 62 -42 22 -120 36 -120 22z"/>
<path d="M1097 2074 l-38 -76 26 -24 c29 -27 34 -77 9 -112 -19 -28 -60 -29
-74 -2 -12 22 -5 60 11 60 22 0 4 21 -62 74 -39 31 -73 55 -75 53 -2 -2 20
-58 49 -125 l52 -123 30 8 c39 10 181 10 220 0 l30 -8 48 110 c68 158 67 150
21 116 -22 -17 -59 -46 -83 -66 -37 -33 -40 -37 -21 -42 38 -10 17 -77 -25
-77 -58 0 -78 90 -29 135 l25 23 -38 76 -38 76 -38 -76z"/>
<path d="M612 2096 c-36 -39 -42 -52 -42 -89 0 -42 2 -44 39 -57 45 -15 96 -8
130 19 l24 18 -33 12 c-18 6 -46 11 -63 11 -24 0 -28 3 -22 18 4 9 12 34 18
55 16 60 -3 65 -51 13z m-12 -116 c0 -5 -5 -10 -11 -10 -5 0 -7 5 -4 10 3 6 8
10 11 10 2 0 4 -4 4 -10z"/>
<path d="M1596 2103 c3 -21 12 -51 20 -67 8 -16 14 -30 14 -31 0 -1 -10 0 -23
2 -13 3 -43 -1 -67 -7 l-44 -12 24 -19 c35 -27 85 -34 131 -19 36 12 39 16 39
52 0 49 -21 90 -59 117 -40 28 -43 27 -35 -16z"/>
<path d="M512 2026 c-37 -42 -46 -68 -38 -110 11 -57 92 -75 153 -33 18 12 33
25 33 28 0 10 -40 19 -84 19 -32 0 -37 3 -31 18 13 31 18 99 7 106 -5 3 -24
-10 -40 -28z m-2 -126 c0 -5 -5 -10 -11 -10 -5 0 -7 5 -4 10 3 6 8 10 11 10 2
0 4 -4 4 -10z"/>
<path d="M1700 2025 c0 -20 6 -50 14 -68 l13 -33 -28 4 c-34 5 -99 -6 -99 -16
0 -12 88 -52 115 -52 13 0 36 5 50 12 21 9 25 18 25 51 0 52 -26 104 -61 123
l-29 15 0 -36z m77 -131 c-3 -3 -12 -4 -19 -1 -8 3 -5 6 6 6 11 1 17 -2 13 -5z"/>
<path d="M418 1943 c-38 -44 -47 -86 -28 -140 10 -26 16 -30 57 -32 35 -2 54
4 85 24 22 14 38 32 35 38 -5 16 -71 21 -98 7 -21 -12 -21 -11 -15 25 8 39 0
95 -13 95 -4 0 -15 -8 -23 -17z"/>
<path d="M1806 1927 c-3 -18 -3 -47 0 -65 l6 -31 -35 11 c-19 6 -47 8 -61 4
-23 -6 -25 -9 -16 -26 16 -29 66 -52 109 -49 20 2 42 0 49 -5 8 -5 12 0 13 16
1 16 3 13 9 -12 9 -39 5 -49 -12 -32 -7 7 -34 12 -61 12 -49 0 -49 0 -35 -22
26 -40 66 -62 110 -62 41 -1 44 1 61 39 21 46 17 83 -14 126 -26 36 -37 37
-42 2 -2 -18 -5 -11 -6 19 -1 34 -8 55 -27 77 -33 39 -40 39 -48 -2z m49 -135
c-3 -3 -11 0 -18 7 -9 10 -8 11 6 5 10 -3 15 -9 12 -12z"/>
<path d="M336 1838 c-34 -52 -40 -87 -21 -128 19 -41 56 -57 98 -41 28 11 87
59 87 72 0 14 -71 11 -100 -4 l-25 -13 0 57 c0 70 -16 93 -39 57z m24 -142 c0
-3 -4 -8 -10 -11 -5 -3 -10 -1 -10 4 0 6 5 11 10 11 6 0 10 -2 10 -4z"/>
<path d="M667 1770 c-246 -217 -308 -577 -146 -846 19 -31 67 -91 107 -134 42
-46 68 -81 62 -85 -6 -4 -22 0 -35 9 -31 20 -31 20 -40 -6 -6 -20 -8 -18 -16
18 -5 23 -21 51 -34 64 l-24 23 -11 -28 c-6 -15 -8 -43 -4 -62 6 -34 6 -35
-15 -24 -12 7 -44 11 -72 9 l-51 -3 21 -27 21 -26 -40 -7 c-22 -4 -40 -7 -40
-8 0 -1 7 -27 15 -57 8 -30 13 -55 12 -56 -1 -1 -51 -16 -112 -33 -130 -37
-254 -81 -261 -92 -2 -4 34 -29 81 -54 46 -26 87 -50 89 -54 3 -3 -6 -49 -20
-100 -13 -52 -23 -95 -21 -97 1 -1 55 15 118 37 64 22 172 52 240 68 135 31
130 26 116 102 -6 28 -4 38 7 42 8 3 79 16 158 29 116 18 183 22 358 22 210 0
278 -6 443 -41 71 -15 78 -18 73 -37 -2 -12 -8 -38 -11 -58 -7 -35 -5 -38 16
-38 39 0 220 -47 346 -89 64 -22 119 -39 120 -37 2 1 -6 36 -17 77 -37 136
-43 118 60 173 50 27 88 52 83 56 -4 4 -87 33 -183 65 -96 32 -178 59 -182 61
-3 2 0 28 8 57 7 28 14 53 14 53 0 1 -16 5 -36 9 l-36 6 21 23 c11 12 21 25
21 29 0 10 -85 9 -112 -2 -22 -8 -23 -7 -23 44 0 29 -3 57 -7 61 -12 12 -35
-14 -55 -62 -18 -44 -33 -57 -33 -29 0 8 -4 15 -9 15 -5 0 -14 -7 -21 -15 -7
-8 -21 -15 -32 -15 -15 0 3 24 71 96 103 109 152 195 176 309 47 222 -13 442
-165 607 -71 77 -110 102 -152 96 -17 -2 -24 -10 -26 -33 -5 -38 19 -55 65
-48 33 6 39 2 107 -68 84 -88 119 -150 146 -255 34 -133 21 -319 -30 -411 -12
-21 -18 -29 -15 -18 34 105 45 277 24 377 -15 73 -58 166 -79 173 -22 7 -47
-3 -54 -21 -9 -23 11 -52 36 -56 56 -8 94 -129 85 -268 -11 -162 -90 -338
-197 -434 -42 -38 -44 -38 -99 -32 -255 29 -476 31 -661 6 l-65 -9 -72 75
c-123 127 -181 280 -171 453 7 114 36 185 87 209 41 19 50 42 26 66 -22 22
-40 20 -65 -6 -58 -62 -88 -304 -56 -442 9 -38 15 -70 13 -72 -2 -2 -14 27
-28 64 -21 57 -24 85 -24 192 0 106 4 135 24 190 28 78 117 215 167 259 30 27
42 31 81 29 52 -3 70 13 59 55 -10 43 -61 37 -119 -13z m27 -1172 c11 -16 25
-22 46 -20 21 2 30 -2 30 -13 0 -8 5 -15 11 -15 6 0 9 7 5 15 -4 11 1 15 18
15 15 0 26 7 29 20 7 26 51 26 95 0 24 -15 50 -20 99 -20 63 0 77 -11 28 -23
-18 -4 -18 -5 3 -6 17 -1 22 -7 22 -26 0 -14 -4 -25 -10 -25 -5 0 -10 7 -10
15 0 8 -4 15 -10 15 -5 0 -10 -10 -10 -22 0 -17 -3 -19 -12 -10 -7 7 -21 12
-31 12 -15 0 -18 5 -15 25 4 17 1 25 -8 25 -9 0 -14 -12 -14 -35 0 -47 -20
-45 -21 3 -1 32 -2 33 -8 12 -9 -34 -54 -36 -59 -2 -5 35 -22 25 -22 -14 0
-21 -4 -33 -10 -29 -5 3 -10 19 -10 36 0 42 -18 36 -23 -8 -3 -33 -5 -35 -12
-15 -9 27 -25 30 -18 2 6 -23 4 -24 -32 -10 -16 6 -26 17 -24 27 3 32 -1 44
-11 38 -5 -3 -10 -23 -10 -43 0 -50 -18 -29 -21 26 -2 30 -7 42 -18 43 -11 0
-12 2 -3 6 6 2 10 9 6 14 -12 20 16 8 30 -13z m868 2 c11 -17 24 -20 77 -20
l65 0 -22 -20 c-12 -11 -26 -20 -32 -20 -5 0 -10 -5 -10 -10 0 -6 10 -8 24 -4
21 5 25 2 23 -15 -1 -14 -6 -20 -15 -16 -8 3 -20 1 -27 -5 -9 -8 -15 -8 -20 0
-3 5 -1 10 6 10 8 0 8 4 -1 15 -10 12 -10 18 0 30 11 13 8 15 -21 14 -19 -1
-26 -3 -16 -6 10 -3 17 -14 17 -29 0 -27 -20 -34 -21 -6 0 12 -3 10 -11 -8 -6
-15 -12 -20 -15 -12 -3 6 -16 12 -29 12 -17 0 -24 6 -24 20 0 11 5 20 12 20 6
0 3 7 -8 15 -18 14 -18 14 9 15 15 0 27 5 27 10 0 6 -4 10 -10 10 -5 0 -10 5
-10 10 0 17 19 11 32 -10z m28 10 c0 -5 -4 -10 -10 -10 -5 0 -10 5 -10 10 0 6
5 10 10 10 6 0 10 -4 10 -10z m-925 -72 c0 -21 0 -38 -2 -38 -1 0 -14 4 -28
10 -17 7 -24 14 -18 22 4 7 6 21 4 31 -2 14 3 18 21 15 19 -2 23 -9 23 -40z
m629 15 c0 -13 3 -23 8 -23 4 0 8 11 8 25 0 25 1 25 79 25 l80 0 -6 -37 c-6
-44 -23 -68 -23 -35 0 19 -4 21 -25 16 -19 -5 -25 -2 -25 9 0 9 11 17 28 20
22 3 20 4 -10 6 -37 1 -38 0 -38 -35 0 -21 -4 -33 -10 -29 -5 3 -10 19 -10 36
0 16 -4 29 -10 29 -5 0 -10 -17 -10 -37 0 -29 -3 -34 -12 -25 -7 7 -20 12 -29
12 -23 0 -34 19 -20 33 6 6 11 14 11 19 0 4 -11 -4 -25 -18 -14 -14 -22 -30
-19 -36 4 -6 1 -9 -7 -6 -8 3 -15 14 -17 26 -3 17 2 22 17 22 12 0 21 4 21 8
0 5 -14 6 -31 4 -26 -4 -30 -8 -26 -28 6 -32 -15 -49 -42 -34 -12 6 -21 18
-21 27 0 14 2 14 19 -1 12 -11 21 -14 26 -7 3 6 1 11 -5 11 -7 0 -10 7 -6 15
4 11 -1 15 -19 15 -14 0 -25 5 -25 10 0 7 32 10 88 8 83 -3 87 -4 86 -25z"/>
<path d="M850 590 c0 -5 16 -10 36 -10 21 0 33 4 29 10 -3 6 -19 10 -36 10
-16 0 -29 -4 -29 -10z"/>
<path d="M890 545 c0 -8 5 -15 10 -15 6 0 10 7 10 15 0 8 -4 15 -10 15 -5 0
-10 -7 -10 -15z"/>
<path d="M1000 530 c0 -5 5 -10 10 -10 6 0 10 5 10 10 0 6 -4 10 -10 10 -5 0
-10 -4 -10 -10z"/>
<path d="M1530 530 c0 -5 4 -10 9 -10 6 0 13 5 16 10 3 6 -1 10 -9 10 -9 0
-16 -4 -16 -10z"/>
<path d="M260 1721 c-20 -38 -15 -103 11 -142 21 -30 28 -34 54 -29 46 10 71
27 94 64 12 18 21 36 21 40 0 11 -35 6 -76 -13 l-41 -19 -12 49 c-16 60 -35
79 -51 50z"/>
<path d="M1960 1698 c-11 -24 -20 -54 -20 -67 0 -22 -1 -23 -17 -9 -21 18 -92
43 -100 35 -9 -9 37 -76 60 -89 12 -6 36 -14 52 -18 27 -6 32 -2 57 39 15 25
28 56 28 69 0 23 -26 82 -36 82 -3 0 -14 -19 -24 -42z m10 -129 c0 -5 -4 -9
-10 -9 -5 0 -10 7 -10 16 0 8 5 12 10 9 6 -3 10 -10 10 -16z"/>
<path d="M1077 1636 c-4 -9 -16 -16 -29 -16 -21 0 -21 -1 -3 -14 11 -8 16 -19
12 -30 -7 -18 8 -22 18 -5 5 7 13 5 25 -6 18 -16 18 -16 13 6 -4 15 0 26 12
35 18 13 18 14 -3 14 -11 0 -25 7 -30 16 -8 15 -10 15 -15 0z"/>
<path d="M1217 1636 c-4 -9 -17 -16 -29 -16 -20 -1 -21 -2 -5 -11 9 -5 17 -19
17 -31 0 -16 3 -18 14 -9 10 8 16 9 21 1 10 -16 25 -12 18 6 -4 11 1 22 12 30
18 13 18 14 -3 14 -11 0 -25 7 -30 16 -8 15 -10 15 -15 0z"/>
<path d="M210 1586 c-14 -44 -5 -93 23 -123 16 -19 23 -21 36 -11 13 10 14 10
4 -2 -17 -18 -17 -38 -1 -22 7 7 21 12 33 12 31 0 65 28 82 67 8 20 12 37 9
40 -9 9 -73 -17 -91 -37 -18 -20 -18 -19 -35 31 -10 28 -24 58 -33 66 -13 13
-16 11 -27 -21z"/>
<path d="M2010 1589 c-11 -19 -23 -46 -26 -60 l-6 -25 -46 23 c-45 23 -72 29
-72 17 0 -18 45 -83 64 -92 50 -25 72 -23 102 9 25 26 29 38 28 85 0 72 -16
87 -44 43z"/>
<path d="M932 1574 c-16 -8 -20 -14 -12 -19 6 -4 9 -14 6 -22 -5 -11 -2 -13
10 -9 9 4 23 1 30 -5 12 -10 13 -9 8 5 -3 9 -1 23 6 31 10 12 10 15 -3 15 -8
0 -17 4 -19 8 -1 4 -14 3 -26 -4z"/>
<path d="M1350 1579 c0 -5 -6 -9 -14 -9 -25 0 4 -45 30 -46 13 -1 21 2 18 8
-3 5 -1 14 4 21 8 9 4 15 -14 24 -13 6 -24 7 -24 2z"/>
<path d="M823 1475 c-13 -14 -6 -29 20 -38 12 -4 16 -3 11 4 -4 6 0 15 7 20
11 7 11 9 -3 9 -9 0 -18 4 -20 9 -1 5 -8 3 -15 -4z"/>
<path d="M970 1415 c-102 -42 -175 -78 -175 -86 0 -7 32 -29 72 -48 l72 -36 1
-82 c0 -81 0 -82 33 -107 84 -64 206 -79 302 -37 86 38 95 52 95 146 l0 81 55
27 c31 15 58 27 62 27 6 0 -2 -112 -13 -187 l-7 -43 37 0 c20 0 36 2 36 4 0 3
-7 35 -16 73 -9 38 -14 96 -12 132 l3 64 -180 74 c-99 40 -182 72 -185 72 -3
-1 -84 -34 -180 -74z m336 -22 c77 -31 142 -59 146 -62 4 -3 -62 -41 -146 -85
l-153 -78 -154 80 c-142 75 -151 81 -129 91 91 41 268 109 281 110 9 1 79 -24
155 -56z m-246 -213 c44 -22 87 -40 95 -40 8 0 51 18 95 40 l80 40 0 -64 c0
-59 -2 -66 -27 -84 -71 -50 -190 -55 -275 -12 -27 13 -49 28 -49 34 -3 23 -4
126 -1 126 1 0 38 -18 82 -40z"/>
<path d="M1130 1335 c0 -25 5 -45 10 -45 6 0 10 20 10 45 0 25 -4 45 -10 45
-5 0 -10 -20 -10 -45z"/>
<path d="M1167 1370 c6 -7 9 -19 6 -26 -3 -8 0 -14 7 -14 16 0 8 43 -10 48
-12 3 -12 2 -3 -8z"/>
<path d="M1216 1364 c-9 -8 -16 -22 -16 -29 0 -12 26 -45 35 -45 3 0 0 11 -6
24 -8 17 -8 29 0 45 14 25 9 27 -13 5z"/>
<path d="M1062 1363 c3 -5 10 -23 17 -40 7 -18 17 -33 22 -33 12 0 12 1 -6 44
-8 20 -20 36 -26 36 -6 0 -9 -3 -7 -7z"/>
<path d="M1465 1476 c-18 -20 -14 -44 6 -39 23 6 30 25 15 39 -8 8 -14 8 -21
0z"/>
<path d="M174 1456 c-8 -35 11 -85 46 -123 l30 -32 41 17 c41 16 53 32 74 101
7 22 5 23 -21 17 -16 -4 -41 -20 -56 -36 -27 -29 -27 -29 -34 -7 -8 28 -52 87
-64 87 -5 0 -12 -11 -16 -24z m91 -125 c3 -5 1 -12 -5 -16 -5 -3 -10 1 -10 9
0 18 6 21 15 7z"/>
<path d="M2043 1451 c-12 -15 -27 -40 -34 -54 l-12 -26 -18 23 c-19 24 -76 53
-85 43 -3 -3 5 -30 18 -59 21 -46 31 -56 64 -66 39 -12 39 -12 77 28 37 39 47
81 31 124 -8 22 -15 20 -41 -13z"/>
<path d="M166 1336 c-11 -45 18 -110 60 -135 28 -17 38 -18 64 -8 32 12 70 74
70 115 0 22 -1 22 -29 7 -16 -8 -38 -26 -49 -40 -25 -31 -27 -31 -42 4 -6 16
-24 41 -39 55 l-28 27 -7 -25z m99 -125 c3 -5 1 -12 -5 -16 -5 -3 -10 1 -10 9
0 18 6 21 15 7z"/>
<path d="M2056 1329 c-16 -18 -33 -44 -39 -56 -12 -28 -24 -29 -31 -5 -4 10
-24 29 -46 41 -37 21 -40 21 -40 4 1 -65 87 -158 103 -110 2 6 2 2 0 -10 -5
-32 8 -29 50 15 40 41 55 90 40 131 l-9 23 -28 -33z"/>
<path d="M326 1195 c-14 -15 -29 -39 -32 -52 -8 -29 -12 -29 -35 1 -10 13 -35
33 -54 45 l-35 20 0 -25 c0 -41 27 -80 75 -108 l45 -27 34 26 c37 28 53 84 37
126 l-8 23 -27 -29z m-26 -126 c0 -6 -4 -7 -10 -4 -5 3 -10 11 -10 16 0 6 5 7
10 4 6 -3 10 -11 10 -16z"/>
<path d="M1896 1194 c-10 -40 11 -98 44 -122 l30 -23 45 27 c50 29 78 71 73
111 l-3 27 -55 -45 -55 -45 -17 35 c-10 20 -26 41 -37 48 -17 10 -20 9 -25
-13z m84 -114 c0 -5 -5 -10 -11 -10 -5 0 -7 5 -4 10 3 6 8 10 11 10 2 0 4 -4
4 -10z"/>
<path d="M364 1087 c-12 -14 -27 -40 -34 -58 -11 -25 -15 -28 -22 -15 -11 19
-97 71 -104 63 -3 -3 -1 -22 6 -41 12 -39 56 -77 104 -93 26 -8 33 -5 58 20
29 31 35 70 19 126 l-7 25 -20 -27z"/>
<path d="M1867 1096 c-19 -48 4 -129 43 -154 17 -10 28 -9 68 10 39 19 50 31
66 70 11 26 17 51 13 54 -8 9 -97 -44 -104 -62 -7 -19 -23 -8 -23 16 0 11 -13
34 -28 51 -25 28 -30 30 -35 15z m73 -136 c0 -5 -4 -10 -10 -10 -5 0 -10 5
-10 10 0 6 5 10 10 10 6 0 10 -4 10 -10z"/>
<path d="M767 1019 l-48 -70 38 8 c117 23 262 1 333 -52 39 -29 33 -32 -13 -8
-46 24 -125 43 -177 43 -46 0 -159 -25 -172 -38 -4 -4 55 -7 130 -7 103 0 154
-5 205 -19 37 -10 70 -16 73 -13 11 10 -61 79 -106 102 -54 27 -147 45 -202
38 -43 -6 -45 -1 -23 51 8 20 14 36 12 36 -1 0 -24 -32 -50 -71z"/>
<path d="M394 965 c-7 -19 -14 -46 -14 -61 0 -26 -1 -26 -19 -10 -10 9 -42 26
-70 36 l-50 20 10 -27 c13 -36 28 -52 64 -75 21 -12 25 -18 13 -18 -24 0 -23
-10 7 -51 29 -38 46 -47 93 -48 23 -1 32 4 32 15 0 8 5 12 11 9 6 -4 8 -13 5
-21 -3 -8 -1 -14 4 -14 6 0 10 6 10 14 0 7 7 20 16 27 12 10 14 23 10 51 -7
42 -26 88 -36 88 -12 0 -31 -54 -32 -89 -1 -25 -4 -29 -14 -20 -8 6 -31 18
-51 26 -37 14 -37 14 -5 9 18 -3 32 -1 32 4 0 6 -4 10 -10 10 -5 0 -10 5 -10
11 0 8 4 8 14 0 11 -10 17 -7 30 11 19 26 20 62 5 107 -14 40 -27 39 -45 -4z"/>
<path d="M1292 983 c-43 -15 -152 -106 -141 -117 3 -4 44 3 90 14 57 13 121
20 199 21 114 1 115 1 80 17 -24 11 -64 16 -130 16 -81 0 -105 -4 -160 -27
l-65 -27 30 25 c50 41 120 60 220 59 50 0 103 -3 118 -7 37 -10 27 6 -17 27
-43 20 -165 20 -224 -1z"/>
<path d="M1820 959 c-13 -49 -6 -91 20 -114 26 -24 93 -15 127 17 22 20 53 68
53 82 0 9 -71 -15 -105 -36 l-35 -20 0 27 c0 30 -26 85 -40 85 -5 0 -14 -18
-20 -41z"/>
<path d="M1766 878 c-19 -27 -21 -96 -4 -133 11 -25 16 -26 53 -21 58 10 103
36 127 75 l22 34 -40 -7 c-21 -4 -55 -15 -74 -25 l-35 -18 0 36 c0 20 -8 47
-17 59 l-16 23 -16 -23z m31 -140 c-3 -8 -6 -5 -6 6 -1 11 2 17 5 13 3 -3 4
-12 1 -19z"/>
<path d="M830 360 c-13 -9 -12 -13 8 -30 13 -11 21 -24 17 -30 -3 -5 -2 -10 4
-10 22 0 23 24 1 40 -13 10 -20 22 -16 29 9 14 6 14 -14 1z"/>
<path d="M895 330 c0 -22 3 -40 8 -40 4 0 7 18 7 40 0 22 -3 40 -7 40 -5 0 -8
-18 -8 -40z"/>
<path d="M940 359 c0 -8 14 -28 30 -44 17 -16 30 -24 30 -17 0 6 -13 26 -30
44 -19 21 -30 27 -30 17z"/>
<path d="M1034 362 c-26 -17 -20 -72 8 -72 9 0 9 3 0 12 -17 17 -15 45 6 57 9
6 13 10 7 11 -5 0 -15 -4 -21 -8z"/>
<path d="M1100 332 c0 -23 4 -42 8 -42 10 0 9 66 -1 76 -4 4 -7 -11 -7 -34z"/>
<path d="M1214 341 c0 -11 4 -17 8 -15 4 3 8 12 8 20 0 8 -4 14 -8 14 -4 0 -8
-9 -8 -19z"/>
<path d="M1257 353 c-11 -10 -8 -51 3 -58 6 -4 10 8 10 29 0 37 -2 41 -13 29z"/>
<path d="M1292 325 c0 -19 4 -32 9 -29 5 3 9 16 9 29 0 13 -4 26 -9 29 -5 3
-9 -10 -9 -29z"/>
<path d="M1340 327 c0 -20 4 -37 9 -37 11 0 9 56 -2 66 -4 4 -7 -9 -7 -29z"/>
<path d="M1393 353 c9 -2 23 -2 30 0 6 3 -1 5 -18 5 -16 0 -22 -2 -12 -5z"/>
<path d="M1415 305 c0 -13 3 -21 8 -18 4 2 7 10 7 18 0 8 -3 16 -7 18 -5 3 -8
-5 -8 -18z"/>
<path d="M820 300 c0 -5 5 -10 11 -10 5 0 7 5 4 10 -3 6 -8 10 -11 10 -2 0 -4
-4 -4 -10z"/>
<path d="M1190 298 c0 -5 11 -8 25 -8 14 0 25 3 25 8 0 4 -11 7 -25 7 -14 0
-25 -3 -25 -7z"/>
</g>
</svg>
